REM Ripping Tool: trurip

FILE "Quiz Avenue II (1991)(NEC Avenue)(JP).img" BINARY
  TRACK 01 AUDIO
    INDEX 01 00:00:00
  TRACK 02 MODE1/2352
    INDEX 00 00:44:65
    INDEX 01 00:47:65
  TRACK 03 AUDIO
    INDEX 00 08:22:64
    INDEX 01 08:24:64
  TRACK 04 AUDIO
    INDEX 01 08:33:17
  TRACK 05 AUDIO
    INDEX 01 10:44:55
  TRACK 06 AUDIO
    INDEX 01 14:30:70
  TRACK 07 AUDIO
    INDEX 01 16:45:58
  TRACK 08 MODE1/2352
    INDEX 00 19:00:56
    INDEX 01 19:03:56

REM DISC HASHES
REM CRC32 : f65ae787
REM MD5   : ef82ca1b8fe311d19572cfa797bacf1d
REM SHA1  : 8f10dfee984ee677c6b981417d4d8af54ee6cb36

REM Gap Append Method: Prev [crc32]
REM Trk 01: ccd25d2f
REM Trk 02: 00f24661
REM Trk 03: 69c4ac2b
REM Trk 04: 97497df7
REM Trk 05: 88ea0b32
REM Trk 06: ea04d24b
REM Trk 07: cb7124b2
REM Trk 08: 2ea70fe8

REM Gap Append Method: Prev [md5]
REM Trk 01: 7938d9aa88f644b60389fa8246f2052e
REM Trk 02: 208df7da7158d3bbd4d8add23087497d
REM Trk 03: bfcaf6b92d7b3f6aea8bbb7f9835e2e7
REM Trk 04: 9fbdbf4e2b350931f6a91323bbad17fc
REM Trk 05: dacf77992e69aca86427e3d0719a54d6
REM Trk 06: f084a7b5fb2ec9d835f2c0201822ccda
REM Trk 07: c92fe5ef427563acdb915d5f05b2ce11
REM Trk 08: d2927b6d2f1c9fd1f865276d832e5a85

REM Gap Append Method: Prev [sha1]
REM Trk 01: 0fc7f8840f23f43ebfb7041f71427c165f368105
REM Trk 02: 2f593ac7d882524393aff23392cda8d632cd0f1c
REM Trk 03: 1b76769f6f403803b22fc4ee855b82d088a7b76d
REM Trk 04: 09236a11b0d406cbfbbc451652493a69f5ecfca7
REM Trk 05: 4fe71cbce1ac3c1810a763bc87864d1796779511
REM Trk 06: e50d39ea770040f2dbc68ac50c4ca3a79ccf83a5
REM Trk 07: 9c23b0f349a03ce2ac7c8eb7cbbeb7da1936a744
REM Trk 08: e3a08508d04025d40a91f099839de90e49d82224

REM Gap Append Method: None [crc32]
REM Trk 01: b979500c
REM Trk 02: 3de9955a
REM Trk 03: 69c4ac2b
REM Trk 04: 97497df7
REM Trk 05: 88ea0b32
REM Trk 06: ea04d24b
REM Trk 07: 1cff8385
REM Trk 08: 2ea70fe8
REM Gap 02: 16e86594
REM Gap 03: 7abe247f
REM Gap 08: 6f9ec08b

REM Gap Append Method: None [md5]
REM Trk 01: a25a2c129b7100092cc40e9b6e176a63
REM Trk 02: ae055edcb6a1ad55e6781b6944e3e959
REM Trk 03: bfcaf6b92d7b3f6aea8bbb7f9835e2e7
REM Trk 04: 9fbdbf4e2b350931f6a91323bbad17fc
REM Trk 05: dacf77992e69aca86427e3d0719a54d6
REM Trk 06: f084a7b5fb2ec9d835f2c0201822ccda
REM Trk 07: dd78c4d3152283275d1011c8ad9c3c6d
REM Trk 08: d2927b6d2f1c9fd1f865276d832e5a85
REM Gap 02: fbd314ec9876f082e173fbb5baf092aa
REM Gap 03: 9df204fbc98bb8965081cb30a89715fc
REM Gap 08: 8e5f34909ac160021d0f2cd38bd10042

REM Gap Append Method: None [sha1]
REM Trk 01: 9ac3f1a11d434d186466917f1c7955bf7670c910
REM Trk 02: 52b1fcb9aee2cf9af3b8f7ef5ae28587c8edfd2e
REM Trk 03: 1b76769f6f403803b22fc4ee855b82d088a7b76d
REM Trk 04: 09236a11b0d406cbfbbc451652493a69f5ecfca7
REM Trk 05: 4fe71cbce1ac3c1810a763bc87864d1796779511
REM Trk 06: e50d39ea770040f2dbc68ac50c4ca3a79ccf83a5
REM Trk 07: fe0ed8b6d65a01f21325c25b5db5fff0258e8ca6
REM Trk 08: e3a08508d04025d40a91f099839de90e49d82224
REM Gap 02: 08a9af7bae10b281a8edaad6e9ea6cd1646d0ce0
REM Gap 03: cbe29e0bd725ef1194f8c47619dd42078e841de2
REM Gap 08: 74fac9f97f721168592858accdd85640bb3b5de9

REM Gap Append Method: Next [crc32]
REM Trk 01: b979500c
REM Trk 02: 1a9a72da
REM Trk 03: 826d7ad6
REM Trk 04: 97497df7
REM Trk 05: 88ea0b32
REM Trk 06: ea04d24b
REM Trk 07: 1cff8385
REM Trk 08: fa0dfa02

REM Gap Append Method: Next [md5]
REM Trk 01: a25a2c129b7100092cc40e9b6e176a63
REM Trk 02: 8aec1b75e8a8dd150aa4d18c9bbf8d54
REM Trk 03: 0a100a71f7cceafbb30554662f1fcdf3
REM Trk 04: 9fbdbf4e2b350931f6a91323bbad17fc
REM Trk 05: dacf77992e69aca86427e3d0719a54d6
REM Trk 06: f084a7b5fb2ec9d835f2c0201822ccda
REM Trk 07: dd78c4d3152283275d1011c8ad9c3c6d
REM Trk 08: 2fbeaa7213b8840cf7ffdb9648a5b298

REM Gap Append Method: Next [sha1]
REM Trk 01: 9ac3f1a11d434d186466917f1c7955bf7670c910
REM Trk 02: bd0b3dc03378aaf45005331047d63a1032e2d1c1
REM Trk 03: 002d0572d2daf55bd692fc6459c8962658e315ed
REM Trk 04: 09236a11b0d406cbfbbc451652493a69f5ecfca7
REM Trk 05: 4fe71cbce1ac3c1810a763bc87864d1796779511
REM Trk 06: e50d39ea770040f2dbc68ac50c4ca3a79ccf83a5
REM Trk 07: fe0ed8b6d65a01f21325c25b5db5fff0258e8ca6
REM Trk 08: 93ee0fa42874af41b6687b75e25bce7e027bf1df

